# xmcd
#
# Track frame offsets: 
#        187
#        15342
#        33007
#        61672
#        76220
#        94675
#        111772
#        130270
#        152907
#        185312
#
# Disc length: 2683 seconds
#
# Revision: 0
# Processed by: cddbd v1.5.2PL0 Copyright (c) Steve Scherf et al.
# Submitted via: ExactAudioCopy v0.99pb4
#
DISCID=680a790a
DTITLE=A History Of King Jazz Recordings - The High Colour Club Presen
DTITLE=ts Sunday Jazz Concert At The Sankei Hall, Tokyo
DYEAR=1956
DGENRE=Jazz
TTITLE0=Babaroa
TTITLE1=Mago Uta
TTITLE2=Air Mail Special
TTITLE3=Memories Of You
TTITLE4=Rose Room
TTITLE5=The Man In The Raincoat
TTITLE6=Stardust
TTITLE7=Mambo De Flute
TTITLE8=Who Parks The Car?
TTITLE9=Floor Show
EXTD=
EXTT0=
EXTT1=
EXTT2=
EXTT3=
EXTT4=
EXTT5=
EXTT6=
EXTT7=
EXTT8=
EXTT9=
PLAYORDER=
